<?xml version="1.0" encoding="UTF-8"?>
<svg version="1.1" xmlns="http://www.w3.org/2000/svg" width="512" height="512" >
<path d="M0 0 C0.78724771 -0.00265183 1.57449541 -0.00530365 2.38559911 -0.00803584 C5.04565438 -0.01574629 7.70566362 -0.01628868 10.36572933 -0.01688576 C12.28334945 -0.02089924 14.20096872 -0.02533727 16.11858696 -0.03016531 C21.40563555 -0.04214955 26.69267502 -0.04778355 31.97973454 -0.05234647 C37.67522891 -0.05829558 43.37071232 -0.06990717 49.0661993 -0.08063698 C62.83003774 -0.1051772 76.59387981 -0.1197907 90.3577334 -0.13269705 C94.24402485 -0.13640786 98.13031595 -0.14038118 102.01660705 -0.14444971 C126.13971247 -0.16968555 150.26281745 -0.19175913 174.38593292 -0.20417786 C179.9755475 -0.20709919 185.56516205 -0.21006671 191.15477657 -0.21308327 C191.84921702 -0.21345418 192.54365746 -0.21382509 193.25914156 -0.21420723 C215.77107613 -0.22636088 238.28293248 -0.25730153 260.79483031 -0.29900479 C284.59417942 -0.34301263 308.3934722 -0.36871281 332.19286388 -0.37409842 C345.16669317 -0.37751436 358.14039908 -0.38929118 371.1141901 -0.42220116 C382.16274655 -0.45018118 393.21115433 -0.46120994 404.25974346 -0.4500057 C409.89743879 -0.44481383 415.53482272 -0.4477405 421.17247295 -0.47247124 C426.33511516 -0.49492928 431.49722162 -0.49425031 436.659873 -0.47526737 C438.52603968 -0.47246255 440.39224243 -0.47809257 442.25835104 -0.4930803 C453.67255344 -0.57913752 462.02596655 -0.08831339 471.19359493 7.44951439 C476.79991995 14.33728513 479.50121094 19.52049254 479.51531601 28.47340393 C479.51977385 29.78495787 479.5242317 31.09651181 479.52882463 32.44780982 C479.52873533 33.90692497 479.52854548 35.36604013 479.52826595 36.82515526 C479.53156534 38.37240643 479.53529106 39.91965674 479.53940743 41.46690595 C479.54942708 45.72555547 479.55314417 49.9841909 479.55579674 54.24285054 C479.55969989 58.83334086 479.56927821 63.42382001 479.57800961 68.01430321 C479.59777353 79.10361981 479.60784005 90.19293734 479.6167374 101.28226715 C479.62112034 106.50403628 479.62648713 111.72580439 479.63172626 116.94757271 C479.64873833 134.30516474 479.66323268 151.66275614 479.67047501 169.02035522 C479.67238491 173.52489917 479.67430524 178.02944312 479.67626095 182.53398705 C479.67674469 183.65357309 479.67722843 184.77315913 479.67772683 185.92667203 C479.68602781 204.06476689 479.71136598 222.20279581 479.74384163 240.34086187 C479.77690938 258.96138246 479.79492351 277.58186953 479.79811925 296.20241964 C479.80028458 306.65775731 479.80903676 317.11299882 479.83458042 327.56830788 C479.8562835 336.47220224 479.86433974 345.37597709 479.85461364 354.2798949 C479.85006785 358.82190265 479.85197144 363.36366379 479.87137508 367.90563774 C479.88899954 372.06712646 479.88801497 376.22818853 479.87247779 380.38968174 C479.87010063 381.89175419 479.87443096 383.39385613 479.88630644 384.89588352 C479.95901885 394.70348092 478.79712376 402.35604253 473.75609493 410.88701439 C466.98834702 417.29856504 459.97046035 420.28899643 450.76218987 420.27402878 C449.97494216 420.2766806 449.18769445 420.27933243 448.37659076 420.28206462 C445.71653549 420.28977507 443.05652625 420.29031746 440.39646053 420.29091454 C438.47884042 420.29492801 436.56122115 420.29936604 434.64360291 420.30419409 C429.35655431 420.31617833 424.06951485 420.32181233 418.78245533 420.32637525 C413.08696096 420.33232436 407.39147755 420.34393595 401.69599056 420.35466576 C387.93215213 420.37920597 374.16831006 420.39381947 360.40445647 420.40672582 C356.51816501 420.41043663 352.63187392 420.41440996 348.74558282 420.41847849 C324.6224774 420.44371433 300.49937241 420.46578791 276.37625694 420.47820663 C270.78664237 420.48112797 265.19702782 420.48409549 259.60741329 420.48711205 C258.91297285 420.48748295 258.2185324 420.48785386 257.50304831 420.48823601 C234.99111374 420.50038966 212.47925739 420.53133031 189.96735955 420.57303357 C166.16801045 420.6170414 142.36871766 420.64274159 118.56932598 420.6481272 C105.5954967 420.65154314 92.62179078 420.66331996 79.64799976 420.69622993 C68.59944332 420.72420996 57.55103553 420.73523872 46.50244641 420.72403447 C40.86475107 420.71884261 35.22736715 420.72176928 29.58971691 420.74650002 C24.4270747 420.76895806 19.26496824 420.76827909 14.10231686 420.74929614 C12.23615018 420.74649133 10.36994743 420.75212134 8.50383883 420.76710908 C-2.91036357 420.85316629 -11.26377669 420.36234217 -20.43140507 412.82451439 C-26.03773009 405.93674365 -28.73902107 400.75353624 -28.75312614 391.80062485 C-28.75758399 390.48907091 -28.76204183 389.17751696 -28.76663476 387.82621896 C-28.76654547 386.36710381 -28.76635562 384.90798865 -28.76607609 383.44887352 C-28.76937547 381.90162235 -28.7731012 380.35437204 -28.77721757 378.80712283 C-28.78723721 374.5484733 -28.7909543 370.28983788 -28.79360688 366.03117824 C-28.79751002 361.44068792 -28.80708834 356.85020876 -28.81581974 352.25972557 C-28.83558366 341.17040896 -28.84565019 330.08109144 -28.85454753 318.99176162 C-28.85893047 313.7699925 -28.86429726 308.54822439 -28.8695364 303.32645607 C-28.88654846 285.96886404 -28.90104282 268.61127264 -28.90828514 251.25367355 C-28.91019504 246.7491296 -28.91211538 242.24458566 -28.91407108 237.74004173 C-28.91455482 236.62045569 -28.91503856 235.50086965 -28.91553696 234.34735675 C-28.92383794 216.20926189 -28.94917612 198.07123297 -28.98165176 179.93316691 C-29.01471952 161.31264632 -29.03273364 142.69215925 -29.03592938 124.07160914 C-29.03809472 113.61627147 -29.04684689 103.16102996 -29.07239056 92.7057209 C-29.09409364 83.80182654 -29.10214988 74.89805169 -29.09242377 65.99413387 C-29.08787798 61.45212612 -29.08978158 56.91036499 -29.10918522 52.36839104 C-29.12680967 48.20690231 -29.1258251 44.04584025 -29.11028793 39.88434704 C-29.10791076 38.38227459 -29.1122411 36.88017265 -29.12411658 35.37814526 C-29.19682898 25.57054785 -28.03493389 17.91798625 -22.99390507 9.38701439 C-16.22615716 2.97546374 -9.20827048 -0.01496765 0 0 Z M-10.61890507 22.13701439 C-18.96822307 38.83565039 -11.61890507 59.46737177 -11.61890507 78.13701439 C144.80109493 78.13701439 301.22109493 78.13701439 462.38109493 78.13701439 C466.3051291 45.81119324 466.3051291 45.81119324 457.38109493 18.13701439 C454.37073774 16.63183579 451.26961945 16.99458999 447.96776867 17 C446.80202566 16.99602226 446.80202566 16.99602226 445.61273229 16.99196416 C442.98100351 16.98424027 440.34932114 16.98371081 437.71758175 16.98311424 C435.82272271 16.97910166 433.92786452 16.97466378 432.03300738 16.96983469 C426.80438643 16.95784067 421.57577472 16.95221421 416.3471427 16.94765353 C410.71646579 16.94170818 405.0858 16.93009574 399.45513058 16.91936302 C385.84662583 16.89481531 372.23811739 16.88020881 358.62959731 16.86730295 C354.78828 16.86359288 350.94696307 16.85961951 347.10564613 16.85555029 C323.26978363 16.83031672 299.43392088 16.80823966 275.59804821 16.79582214 C270.07423303 16.79290072 264.55041787 16.78993322 259.02660275 16.78691673 C258.34032543 16.78654582 257.65404812 16.78617491 256.94697453 16.78579277 C234.69140824 16.77363464 212.43592099 16.74268681 190.18039184 16.70099521 C166.66007007 16.65701448 143.13981294 16.6312905 119.61944461 16.62590158 C106.79439839 16.62248279 93.96947686 16.61067245 81.14446926 16.57779884 C70.22459804 16.54985502 59.30487705 16.53877408 48.38497284 16.5499943 C42.81056207 16.55519538 37.2364662 16.55220019 31.66210079 16.52752876 C26.56192304 16.50514381 21.46228835 16.50569215 16.36210176 16.52473263 C14.51414576 16.52754779 12.66615376 16.52185067 10.81825593 16.5069197 C8.31076636 16.48789328 5.80522924 16.49954683 3.29778576 16.51898193 C2.57612063 16.50613271 1.85445551 16.49328349 1.11092174 16.4800449 C-4.51110733 16.57614499 -6.80807736 18.29848356 -10.61890507 22.13701439 Z M-11.61890507 95.13701439 C-11.72203007 144.67826439 -11.82515507 194.21951439 -11.93140507 245.26201439 C-11.97692509 260.92170677 -12.02244511 276.58139915 -12.06934452 292.71562767 C-12.08606366 306.7170745 -12.08606366 306.7170745 -12.0961237 320.71852684 C-12.10079387 326.9691917 -12.11916597 333.21963412 -12.14678288 339.47023582 C-12.17857355 346.67612844 -12.19309334 353.88180709 -12.18612982 361.08777039 C-12.18311303 364.77530526 -12.18794969 368.46236167 -12.21498072 372.14980912 C-12.24373438 376.09617606 -12.23389582 380.04190281 -12.22017765 383.98836327 C-12.23474097 385.14173117 -12.24930429 386.29509907 -12.26430893 387.48341751 C-12.26330967 394.13492041 -12.26330967 394.13492041 -9.20632553 399.83380508 C-5.18143059 403.41659173 -2.38139148 403.28250923 2.7944212 403.27402878 C3.5715832 403.2766806 4.34874521 403.27933243 5.14945757 403.28206462 C7.78118636 403.28978851 10.41286873 403.29031796 13.04460812 403.29091454 C14.93946716 403.29492712 16.83432534 403.299365 18.72918248 403.30419409 C23.95780343 403.3161881 29.18641515 403.32181457 34.41504717 403.32637525 C40.04572407 403.3323206 45.67638986 403.34393304 51.30705929 403.35466576 C64.91556404 403.37921347 78.52407247 403.39381997 92.13259256 403.40672582 C95.97390986 403.41043589 99.8152268 403.41440927 103.65654373 403.41847849 C127.49240624 403.44371206 151.32826898 403.46578912 175.16414165 403.47820663 C180.68795684 403.48112806 186.21177199 403.48409556 191.73558712 403.48711205 C192.42186443 403.48748295 193.10814174 403.48785386 193.81521534 403.48823601 C216.07078162 403.50039413 238.32626887 403.53134196 260.58179803 403.57303357 C284.10211979 403.6170143 307.62237692 403.64273828 331.14274526 403.6481272 C343.96779148 403.65154599 356.79271301 403.66335633 369.6177206 403.69622993 C380.53759183 403.72417376 391.45731282 403.7352547 402.37721702 403.72403447 C407.95162779 403.7188334 413.52572366 403.72182859 419.10008907 403.74650002 C424.20026683 403.76888496 429.29990152 403.76833663 434.4000881 403.74929614 C436.24804411 403.74648099 438.0960361 403.7521781 439.94393393 403.76710908 C442.45142351 403.7861355 444.95696062 403.77448195 447.46440411 403.75504684 C448.18606923 403.76789607 448.90773436 403.78074529 449.65126812 403.79398388 C455.27329719 403.69788378 457.57026722 401.97554521 461.38109493 398.13701439 C462.62784158 395.6435211 462.50530271 393.98091499 462.50414276 391.19009018 C462.50613363 390.13727482 462.5081245 389.08445946 462.5101757 387.9997406 C462.50726304 386.83472204 462.50435038 385.66970348 462.50134945 384.46938133 C462.50220547 383.24150398 462.50306149 382.01362663 462.50394344 380.74854088 C462.50531537 377.32258657 462.5021612 373.89668877 462.49716766 370.47074124 C462.49281544 366.72624723 462.49426132 362.98175476 462.49498558 359.23725891 C462.49551827 351.9614025 462.49089096 344.68555839 462.48448425 337.40970514 C462.47729805 328.99759931 462.47649026 320.58550092 462.47569942 312.17339134 C462.47044421 289.9529304 462.45648317 267.73247221 462.44359493 245.51201439 C462.42296993 195.88826439 462.40234493 146.26451439 462.38109493 95.13701439 C305.96109493 95.13701439 149.54109493 95.13701439 -11.61890507 95.13701439 Z " fill="#ffffff" transform="translate(30.618905067443848,45.862985610961914)"/>
<path d="M0 0 C9.87210975 8.06855124 15.75698442 18.95192601 17.84375 31.47265625 C17.9494413 33.8864285 18.00220066 36.30273613 18.02075195 38.71875 C18.02732315 39.43011612 18.03389435 40.14148224 18.04066467 40.87440491 C18.06030858 43.21965666 18.07204426 45.56484444 18.08203125 47.91015625 C18.08610678 48.71678711 18.0901823 49.52341797 18.09438133 50.35449219 C18.11521058 54.62939188 18.12952227 58.90425984 18.13891602 63.17919922 C18.14993556 67.56224832 18.18429239 71.94478347 18.22408772 76.32765198 C18.25042958 79.72520796 18.25862359 83.12264511 18.26219749 86.52029419 C18.26702325 88.13399705 18.27852041 89.74769606 18.29723549 91.36129761 C18.46997824 107.25066786 15.6261252 120.8510097 4.5546875 132.98046875 C-5.84614981 142.98508369 -18.04932015 146.90412342 -32.24047852 146.83618164 C-44.62755846 146.55268118 -55.2165944 141.72676528 -64.41015625 133.44140625 C-73.53221386 123.88661346 -78.38360553 112.01023343 -78.4309082 98.85424805 C-78.43601913 98.13923126 -78.44113007 97.42421448 -78.44639587 96.68753052 C-78.46017372 94.34889094 -78.45934381 92.01055007 -78.45703125 89.671875 C-78.46092526 88.02814121 -78.46526136 86.38440841 -78.47001648 84.74067688 C-78.47745378 81.30372856 -78.47720599 77.86688299 -78.47192383 74.42993164 C-78.46613887 70.05244333 -78.48304866 65.67537947 -78.5062685 61.29796124 C-78.52109125 57.90476574 -78.52186589 54.5116704 -78.51875877 51.11844826 C-78.51926791 49.50590997 -78.52442806 47.89336546 -78.53457069 46.28085899 C-78.62093308 30.62955473 -76.25580777 16.2140841 -65.16015625 4.3515625 C-47.03678346 -12.6413075 -20.31329176 -14.38858166 0 0 Z M-54.15625 18.47265625 C-59.18819317 25.09228633 -61.39594973 31.33577437 -61.44677734 39.7121582 C-61.45349457 40.41058838 -61.46021179 41.10901855 -61.46713257 41.82861328 C-61.48602963 44.12279503 -61.49003262 46.4166829 -61.4921875 48.7109375 C-61.4986216 50.31748064 -61.50535041 51.92402262 -61.51235962 53.53056335 C-61.52431194 56.89369419 -61.5280426 60.25672248 -61.52685547 63.61987305 C-61.52665249 67.91028655 -61.55394177 72.20003614 -61.58839989 76.49029255 C-61.61073758 79.80792711 -61.61469091 83.12540367 -61.61363602 86.4431057 C-61.61598214 88.02381869 -61.62474945 89.6045367 -61.64030075 91.18517494 C-61.71564585 99.63470516 -61.70889129 107.02879466 -57.15625 114.47265625 C-56.48722656 115.66955078 -56.48722656 115.66955078 -55.8046875 116.890625 C-51.35954914 123.06745837 -44.827332 128.16573117 -37.15625 129.47265625 C-26.55480278 130.28712512 -17.86409406 129.4146003 -9.34375 122.72265625 C-3.4355024 117.20457595 0.47739943 110.16543852 1.11117554 102.04705811 C1.12261093 100.16703094 1.12261093 100.16703094 1.13427734 98.24902344 C1.14099457 97.55219955 1.14771179 96.85537567 1.15463257 96.13743591 C1.17353181 93.84806052 1.17753294 91.55897967 1.1796875 89.26953125 C1.18612219 87.66538374 1.19285104 86.06123739 1.19985962 84.45709229 C1.21181304 81.09815758 1.21554256 77.73932556 1.21435547 74.38037109 C1.21415265 70.09902312 1.24142432 65.8183417 1.27589989 61.53715134 C1.29825977 58.22376549 1.30219021 54.91053758 1.30113602 51.59708405 C1.30347949 50.0199886 1.31223154 48.44288795 1.32780075 46.86586761 C1.43460916 34.92745041 0.2810413 25.24839863 -8.23046875 16.2265625 C-15.58836192 9.52535756 -23.15789844 6.95567361 -33.0625 7.1640625 C-41.69383292 8.02501616 -48.37973859 12.13007245 -54.15625 18.47265625 Z " fill="#ffffff" transform="translate(286.15625,226.52734375)"/>
<path d="M0 0 C2.62882481 0.87627494 3.66586782 1.44277158 5.09434319 3.82502365 C6.04289573 6.10301607 6.24706117 7.59912141 6.24050903 10.04962158 C6.24325836 10.84605072 6.24600769 11.64247986 6.24884033 12.46304321 C6.2380545 13.75992569 6.2380545 13.75992569 6.22705078 15.08300781 C6.22734283 16.00042755 6.22763489 16.91784729 6.22793579 17.86306763 C6.22654329 20.89318321 6.21098571 23.92305241 6.1953125 26.953125 C6.19158209 29.05490993 6.18873525 31.1566966 6.18673706 33.25848389 C6.17910282 38.78886725 6.15945605 44.31914547 6.1373291 49.8494873 C6.11686622 55.49339373 6.10773439 61.13731716 6.09765625 66.78125 C6.07621003 77.85421285 6.04207653 88.92709768 6 100 C6.55461914 99.98952637 7.10923828 99.97905273 7.68066406 99.96826172 C10.20372959 99.92657996 12.72672253 99.90063562 15.25 99.875 C16.12269531 99.85824219 16.99539063 99.84148437 17.89453125 99.82421875 C18.73886719 99.81777344 19.58320313 99.81132812 20.453125 99.8046875 C21.22817383 99.79421387 22.00322266 99.78374023 22.80175781 99.77294922 C25.29305049 100.03026843 26.86883599 100.70405318 29 102 C31.04950964 104.63508382 30.9979723 106.1135512 30.9375 109.5 C29.77149535 113.85308404 28.86025305 114.72926291 25 117 C21.71171747 117.47504338 18.50094478 117.37848555 15.1875 117.25 C14.30384766 117.23195313 13.42019531 117.21390625 12.50976562 117.1953125 C10.33937457 117.14838513 8.16954481 117.07664731 6 117 C6.01571045 117.97348389 6.0314209 118.94696777 6.04760742 119.94995117 C6.10206239 123.57470367 6.13640626 127.19942026 6.16479492 130.82446289 C6.17984622 132.39093107 6.20029207 133.95735736 6.22631836 135.52368164 C6.26286433 137.78021606 6.27976261 140.03619153 6.29296875 142.29296875 C6.30845261 142.98899704 6.32393646 143.68502533 6.33988953 144.40214539 C6.34139243 148.78170025 5.68834581 151.51834504 3 155 C-0.13400885 156.56700442 -3.63155095 156.85164561 -7 156 C-9.98636134 153.10958183 -10.94096186 151.4795738 -11.45410156 147.3112793 C-11.45347429 145.89876744 -11.43122867 144.48614704 -11.390625 143.07421875 C-11.38496521 142.32662796 -11.37930542 141.57903717 -11.37347412 140.80879211 C-11.35118468 138.43436089 -11.30100656 136.06147062 -11.25 133.6875 C-11.22992519 132.07228751 -11.21167613 130.45705123 -11.1953125 128.84179688 C-11.15134486 124.89394267 -11.08237261 120.94723208 -11 117 C-11.81797058 117.00444122 -12.63594116 117.00888245 -13.47869873 117.01345825 C-21.18870552 117.05353856 -28.89866177 117.08398621 -36.60874557 117.10362434 C-40.57254227 117.1140599 -44.53625286 117.12821492 -48.5 117.15087891 C-52.32550147 117.17261545 -56.15092012 117.18457034 -59.97647858 117.18975449 C-61.43571527 117.19344879 -62.89494744 117.20066283 -64.35414886 117.21146011 C-66.39863365 117.225986 -68.44277657 117.22797751 -70.48730469 117.22705078 C-71.65090515 117.231492 -72.81450562 117.23593323 -74.0133667 117.24050903 C-76.96348034 117.00294087 -78.57591117 116.65557508 -81 115 C-83.5373508 111.1939738 -83.53473044 109.5242845 -83 105 C-81.59148995 102.14797198 -79.74086117 99.70856221 -77.8125 97.1875 C-77.27294678 96.45394287 -76.73339355 95.72038574 -76.17749023 94.96459961 C-75.0368259 93.41471063 -73.88962063 91.86961686 -72.73632812 90.32910156 C-70.510579 87.34349321 -68.33833948 84.32125003 -66.16674805 81.29614258 C-64.5451675 79.03836745 -62.91631257 76.78602114 -61.28515625 74.53515625 C-58.0186666 70.02687665 -54.75869057 65.51391895 -51.5 61 C-48.24130943 56.48608105 -44.9813334 51.97312335 -41.71484375 47.46484375 C-36.40712259 40.1346447 -31.13419298 32.7843906 -25.9375 25.375 C-21.82591179 19.52623668 -17.64379137 13.73516023 -13.375 8 C-12.86573975 7.31083496 -12.35647949 6.62166992 -11.83178711 5.91162109 C-7.97451701 0.76728028 -6.4502129 -0.38701277 0 0 Z M-12 35 C-13.78894267 37.43666329 -15.52854412 39.89109251 -17.25 42.375 C-18.3480661 43.94593654 -19.44705455 45.51622869 -20.546875 47.0859375 C-21.11728516 47.90030273 -21.68769531 48.71466797 -22.27539062 49.55371094 C-24.98273207 53.39396593 -27.7403963 57.19721278 -30.5 61 C-35.30303122 67.62427631 -40.03610563 74.29398554 -44.73535156 80.9921875 C-48.5265397 86.37684745 -52.4477507 91.64812857 -56.453125 96.875 C-58.09808752 98.69668107 -58.09808752 98.69668107 -58 100 C-42.49 100 -26.98 100 -11 100 C-11 78.55 -11 57.1 -11 35 C-11.33 35 -11.66 35 -12 35 Z " fill="#ffffff" transform="translate(412,217)"/>
<path d="M0 0 C3.1850357 1.76015131 3.83296972 2.49890916 5 6 C5.09174324 8.99774892 5.12593903 11.97184947 5.11352539 14.96948242 C5.11367142 15.88675613 5.11381744 16.80402985 5.1139679 17.74909973 C5.11327057 20.78458003 5.10548656 23.81999916 5.09765625 26.85546875 C5.09579143 28.95868394 5.09436783 31.06189957 5.09336853 33.16511536 C5.08954839 38.70369666 5.07972237 44.2422518 5.06866455 49.78082275 C5.05843964 55.43135219 5.05386859 61.08188585 5.04882812 66.73242188 C5.03809968 77.82162609 5.02102926 88.91081087 5 100 C5.58491211 99.98428955 6.16982422 99.9685791 6.77246094 99.95239258 C9.43154164 99.88989733 12.09046764 99.85096431 14.75 99.8125 C15.67039062 99.78736328 16.59078125 99.76222656 17.5390625 99.73632812 C18.42851562 99.72666016 19.31796875 99.71699219 20.234375 99.70703125 C21.05131836 99.6913208 21.86826172 99.67561035 22.70996094 99.65942383 C25.54928786 100.08169046 26.90299898 101.07613508 29 103 C30.22874663 106.43907821 30.32366869 109.88187179 29.3125 113.375 C27.69885312 115.37284852 26.36921039 116.02027109 24 117 C21.80175781 117.22705078 21.80175781 117.22705078 19.453125 117.1953125 C18.18662109 117.18564453 18.18662109 117.18564453 16.89453125 117.17578125 C16.02183594 117.15902344 15.14914063 117.14226562 14.25 117.125 C12.91775391 117.11146484 12.91775391 117.11146484 11.55859375 117.09765625 C9.37211942 117.07414577 7.18619906 117.04128499 5 117 C5.02618408 118.00377686 5.05236816 119.00755371 5.0793457 120.04174805 C5.17008168 123.77817352 5.22733262 127.51450235 5.2746582 131.25170898 C5.29974959 132.86678461 5.33383126 134.48174726 5.37719727 136.09643555 C5.43809286 138.42264706 5.46626124 140.74735359 5.48828125 143.07421875 C5.51408768 143.79212082 5.5398941 144.51002289 5.56648254 145.24967957 C5.56864982 149.1539348 5.12146749 150.84466683 2.68823242 153.95629883 C0 156 0 156 -3.5 156.625 C-7.97796927 155.82536263 -9.21674761 154.55923574 -12 151 C-12.43948867 148.14398524 -12.59019987 145.90946543 -12.48828125 143.07421875 C-12.48120651 142.32662796 -12.47413177 141.57903717 -12.46684265 140.80879211 C-12.43897645 138.43398598 -12.37626132 136.06158649 -12.3125 133.6875 C-12.28740668 132.07229982 -12.26459531 130.45706246 -12.24414062 128.84179688 C-12.18917647 124.89361181 -12.10296527 120.94721311 -12 117 C-12.81574997 117.00888245 -13.63149994 117.01776489 -14.4719696 117.0269165 C-22.1669222 117.1071291 -29.86167154 117.16799795 -37.5569334 117.20724869 C-41.51299083 117.22810652 -45.46870225 117.25639036 -49.42456055 117.30175781 C-53.24360864 117.34528121 -57.06232433 117.36915069 -60.88160133 117.37950897 C-62.33726038 117.3868888 -63.79290162 117.4013002 -65.24841881 117.42292023 C-67.29060267 117.45204276 -69.33142054 117.45595264 -71.3737793 117.45410156 C-72.53515915 117.46298401 -73.696539 117.47186646 -74.89311218 117.48101807 C-78.68136509 116.89450893 -80.31159438 115.68721135 -83 113 C-84.25 109.9375 -84.25 109.9375 -84 106 C-80.49152245 98.48003738 -74.75511254 91.91244967 -69.75488281 85.32202148 C-65.56711859 79.79926209 -61.54898592 74.17293488 -57.5715332 68.49755859 C-53.92537938 63.29890619 -50.22729359 58.1407507 -46.5 53 C-42.29295749 47.19446873 -38.12406001 41.36477005 -34 35.5 C-29.74535686 29.45217698 -25.45295238 23.43310376 -21.125 17.4375 C-20.60164063 16.71175781 -20.07828125 15.98601562 -19.5390625 15.23828125 C-18.03195423 13.15447338 -16.51742912 11.0763015 -15 9 C-14.45698242 8.25121582 -13.91396484 7.50243164 -13.35449219 6.73095703 C-12.55640137 5.64403564 -12.55640137 5.64403564 -11.7421875 4.53515625 C-11.26378418 3.88039307 -10.78538086 3.22562988 -10.29248047 2.55102539 C-7.45968666 -0.84843419 -4.15658179 -0.28666081 0 0 Z M-13 36 C-14.81359778 38.28778124 -16.57329553 40.59383739 -18.3125 42.9375 C-18.85011963 43.65824707 -19.38773926 44.37899414 -19.94165039 45.12158203 C-24.19133743 50.84686345 -28.32470146 56.64901574 -32.41821289 62.48657227 C-36.15395191 67.81317784 -39.93760229 73.1030049 -43.75 78.375 C-44.29350098 79.12765137 -44.83700195 79.88030273 -45.39697266 80.65576172 C-47.78071581 83.95224194 -50.17230967 87.24179284 -52.59765625 90.5078125 C-53.32855469 91.49523437 -54.05945313 92.48265625 -54.8125 93.5 C-55.43769531 94.3353125 -56.06289062 95.170625 -56.70703125 96.03125 C-58.18298207 97.88605838 -58.18298207 97.88605838 -58 100 C-42.82 100 -27.64 100 -12 100 C-12 78.88 -12 57.76 -12 36 C-12.33 36 -12.66 36 -13 36 Z " fill="#ffffff" transform="translate(153,217)"/>
<path d="M0 0 C3.13921957 2.60488433 5.69148327 4.79630908 6.2734375 8.953125 C6.46329043 13.24672199 6.4342668 16.09582964 3.625 19.5 C-0.42408255 23.3562691 -3.09329411 23.34389054 -8.51953125 23.28125 C-12.06688108 22.87903081 -13.68718177 21.67419608 -16 19 C-18.03969799 15.30911793 -18.51184637 12.18007873 -18 8 C-14.15497643 0.45783838 -8.12166336 -2.79077733 0 0 Z " fill="#ffffff" transform="translate(169,82)"/>
<path d="M0 0 C3.24044458 2.56535196 4.69560167 4.086805 6 8 C6.53832527 13.70624783 5.61757835 16.5555466 2 21 C-2.2432447 23.8288298 -6.01734529 23.65268001 -11 23 C-14.50252011 20.95686327 -16.77361702 18.90212767 -18 15 C-18.45778685 9.96434467 -18.0454675 7.06062333 -15 3 C-10.8441698 -1.84846857 -5.81807329 -1.51065763 0 0 Z " fill="#ffffff" transform="translate(78,82)"/>
<path d="M0 0 C2.78396446 2.94772708 4.04949346 5.06475179 4.19140625 9.171875 C3.9382602 13.25289622 3.37517796 14.94850348 0.6875 18.1875 C-3.19146313 21.30959227 -5.6712742 21.64083049 -10.546875 21.609375 C-14.46504236 21.00455722 -16.17858816 19.08123243 -18.875 16.25 C-20.72743916 12.54512168 -20.3335162 8.29385812 -19.875 4.25 C-18.10122661 1.09662509 -16.67837044 -0.2590514 -13.625 -2.125 C-8.54707907 -3.27907294 -4.45174418 -2.70975732 0 0 Z " fill="#ffffff" transform="translate(125.875,83.75)"/>
</svg>
